<svg xmlns="http://www.w3.org/2000/svg" viewBox="0 0 7322 1200" fill="#F4F1EB" role="img" aria-label="DevBrasil">
  <g transform="translate(0 925) scale(1 -1)">
    <path d="M790 640Q925 640 1013.0 614.0Q1101 588 1151.0 543.0Q1201 498 1221.5 440.5Q1242 383 1242 320Q1242 257 1219.0 199.5Q1196 142 1143.5 97.0Q1091 52 1004.5 26.0Q918 0 790 0H70V640ZM320 200H780Q836 200 875.0 207.5Q914 215 937.5 230.0Q961 245 971.5 267.5Q982 290 982 320Q982 350 971.5 372.5Q961 395 937.5 410.0Q914 425 875.0 432.5Q836 440 780 440H320Z" transform="translate(0.0 0)"/><path d="M721 176H957Q948 118 899.5 75.0Q851 32 758.5 8.5Q666 -15 523 -15Q372 -15 262.5 9.0Q153 33 94.0 90.0Q35 147 35 244Q35 340 92.5 397.5Q150 455 259.0 480.0Q368 505 523 505Q675 505 772.0 478.0Q869 451 915.0 390.5Q961 330 959 227H279Q284 201 307.5 179.0Q331 157 380.5 143.5Q430 130 513 130Q599 130 654.5 142.0Q710 154 721 176ZM513 360Q407 360 351.5 337.0Q296 314 286 291H726Q719 317 670.0 338.5Q621 360 513 360Z" transform="translate(1274.0 0)"/><path d="M510 90 396 92 648 490H913L564 0H338L5 490H269Z" transform="translate(2240.0 0)"/><path d="M70 0V640H700Q894 640 986.0 602.0Q1078 564 1078 470Q1078 410 1038.5 378.0Q999 346 925.5 333.5Q852 321 749 318L757 326Q832 326 896.0 322.0Q960 318 1008.0 304.0Q1056 290 1083.0 261.0Q1110 232 1110 181Q1110 119 1066.0 79.0Q1022 39 941.0 19.5Q860 0 750 0ZM320 188H750Q803 188 826.5 198.0Q850 208 850 230Q850 245 839.5 254.0Q829 263 807.0 267.5Q785 272 750 272H320ZM320 368H708Q761 368 784.5 378.0Q808 388 808 410Q808 433 784.5 442.5Q761 452 708 452H320Z" transform="translate(3130.0 0)"/><path d="M45 490H285V0H45ZM543 305Q478 305 424.0 293.0Q370 281 332.0 264.5Q294 248 275 232L273 280Q276 301 289.0 329.5Q302 358 324.0 388.5Q346 419 378.0 445.5Q410 472 451.5 488.5Q493 505 543 505Z" transform="translate(4242.0 0)"/><path d="M408 -14Q300 -14 216.0 16.5Q132 47 83.5 105.0Q35 163 35 245Q35 331 83.5 389.0Q132 447 216.0 476.0Q300 505 408 505Q528 505 615.5 472.5Q703 440 750.5 381.5Q798 323 798 245Q798 187 771.0 139.5Q744 92 693.0 57.5Q642 23 570.0 4.5Q498 -14 408 -14ZM498 138Q574 138 637.5 147.5Q701 157 739.5 180.0Q778 203 778 245Q778 288 739.5 311.0Q701 334 637.5 343.0Q574 352 498 352Q396 352 340.0 325.5Q284 299 284 245Q284 210 309.0 186.0Q334 162 382.0 150.0Q430 138 498 138ZM778 490H1018V0H792Q792 0 788.5 23.0Q785 46 781.5 89.0Q778 132 778 190Z" transform="translate(4777.0 0)"/><path d="M40 176H261Q275 150 314.5 140.0Q354 130 428 130Q485 130 512.5 136.0Q540 142 548.5 152.0Q557 162 557 173Q557 190 538.5 196.5Q520 203 476.0 204.5Q432 206 355 206Q282 206 224.5 212.5Q167 219 127.0 233.5Q87 248 66.0 274.0Q45 300 45 339Q45 387 76.0 419.5Q107 452 160.0 470.5Q213 489 282.5 497.0Q352 505 428 505Q554 505 634.0 479.5Q714 454 752.0 411.0Q790 368 789 314H574Q563 340 532.5 350.0Q502 360 428 360Q358 360 326.5 349.5Q295 339 295 316Q295 301 310.5 293.5Q326 286 369.5 283.0Q413 280 497 280Q555 280 610.5 276.0Q666 272 710.5 259.0Q755 246 781.0 219.0Q807 192 807 145Q807 88 760.5 52.5Q714 17 629.0 1.0Q544 -15 428 -15Q327 -15 257.5 -2.0Q188 11 144.0 32.5Q100 54 76.5 79.5Q53 105 45.5 130.5Q38 156 40 176Z" transform="translate(5812.0 0)"/><path d="M309 747V597H55V747ZM62 490H302V0H62Z" transform="translate(6626.0 0)"/><path d="M60 690H300V0H60Z" transform="translate(6962.0 0)"/>
  </g>
</svg>
